<?xml version="1.0" encoding="UTF-8" standalone="no"?>
<svg width="60" height="60" viewBox="0 0 60 60" xmlns="http://www.w3.org/2000/svg">
  <defs>
    <pattern id="solar-pattern" patternUnits="userSpaceOnUse" width="60" height="60">
      <!-- Sun/solar elements -->
      <circle cx="30" cy="30" r="8" fill="none" stroke="#F59E0B" stroke-width="1.5" opacity="0.6"/>
      <circle cx="30" cy="30" r="4" fill="#F59E0B" opacity="0.4"/>
      
      <!-- Solar rays -->
      <line x1="30" y1="15" x2="30" y2="10" stroke="#F59E0B" stroke-width="1.5" opacity="0.6"/>
      <line x1="30" y1="50" x2="30" y2="45" stroke="#F59E0B" stroke-width="1.5" opacity="0.6"/>
      <line x1="15" y1="30" x2="10" y2="30" stroke="#F59E0B" stroke-width="1.5" opacity="0.6"/>
      <line x1="50" y1="30" x2="45" y2="30" stroke="#F59E0B" stroke-width="1.5" opacity="0.6"/>
      
      <!-- Diagonal rays -->
      <line x1="21" y1="21" x2="17" y2="17" stroke="#F59E0B" stroke-width="1.5" opacity="0.6"/>
      <line x1="39" y1="21" x2="43" y2="17" stroke="#F59E0B" stroke-width="1.5" opacity="0.6"/>
      <line x1="21" y1="39" x2="17" y2="43" stroke="#F59E0B" stroke-width="1.5" opacity="0.6"/>
      <line x1="39" y1="39" x2="43" y2="43" stroke="#F59E0B" stroke-width="1.5" opacity="0.6"/>
      
      <!-- Plant elements -->
      <path d="M0,60 C10,50 5,40 0,30" fill="none" stroke="#4ADE80" stroke-width="1.5" opacity="0.4"/>
      <path d="M60,60 C50,50 55,40 60,30" fill="none" stroke="#4ADE80" stroke-width="1.5" opacity="0.4"/>
      <path d="M0,0 C10,10 5,20 0,30" fill="none" stroke="#4ADE80" stroke-width="1.5" opacity="0.4"/>
      <path d="M60,0 C50,10 55,20 60,30" fill="none" stroke="#4ADE80" stroke-width="1.5" opacity="0.4"/>
    </pattern>
  </defs>
  
  <rect width="60" height="60" fill="url(#solar-pattern)" />
</svg>
